<?xml version="1.0" standalone="no"?>
<!DOCTYPE svg PUBLIC "-//W3C//DTD SVG 20010904//EN"
 "http://www.w3.org/TR/2001/REC-SVG-20010904/DTD/svg10.dtd">
<svg version="1.0" xmlns="http://www.w3.org/2000/svg"
 width="256.000000pt" height="256.000000pt" viewBox="0 0 256.000000 256.000000"
 preserveAspectRatio="xMidYMid meet">
<metadata>
Created by potrace 1.16, written by Peter Selinger 2001-2019
</metadata>
<g transform="translate(0.000000,256.000000) scale(0.100000,-0.100000)"
fill="#000000" stroke="none">
<path d="M132 2328 c-16 -16 -16 -80 0 -96 8 -8 45 -12 100 -12 l88 0 0 -772
0 -771 25 -43 c15 -26 43 -54 69 -69 l43 -25 549 0 c415 0 553 3 562 12 7 7
12 28 12 48 0 20 -5 41 -12 48 -9 9 -139 12 -524 12 -355 0 -521 3 -544 11
-61 22 -60 11 -60 714 l0 635 868 -1 c477 -1 878 -4 891 -8 13 -3 34 -19 45
-34 l21 -28 -149 -446 c-129 -387 -153 -451 -182 -483 -71 -78 -36 -75 -709
-78 -409 -2 -603 -6 -612 -14 -17 -14 -17 -83 1 -97 10 -9 179 -11 642 -9
l629 3 43 23 c58 31 118 87 146 136 13 23 90 241 171 485 135 407 147 449 141
495 -7 63 -47 122 -101 153 l-40 23 -902 0 -903 0 0 88 c0 55 -4 92 -12 100
-8 8 -56 12 -148 12 -92 0 -140 -4 -148 -12z"/>
<path d="M413 394 c-62 -37 -93 -95 -93 -174 0 -80 31 -138 94 -175 60 -35
152 -35 212 0 63 37 94 95 94 175 0 123 -77 200 -201 200 -51 0 -73 -5 -106
-26z m157 -124 c43 -43 11 -120 -50 -120 -38 0 -70 32 -70 70 0 38 32 70 70
70 17 0 39 -9 50 -20z"/>
<path d="M1413 394 c-62 -37 -93 -95 -93 -174 0 -123 77 -200 200 -200 123 0
200 77 200 200 0 123 -77 200 -201 200 -51 0 -73 -5 -106 -26z m157 -124 c43
-43 11 -120 -50 -120 -38 0 -70 32 -70 70 0 38 32 70 70 70 17 0 39 -9 50 -20z"/>
</g>
</svg>
