<?xml version="1.0" standalone="no"?>
<!DOCTYPE svg PUBLIC "-//W3C//DTD SVG 20010904//EN"
 "http://www.w3.org/TR/2001/REC-SVG-20010904/DTD/svg10.dtd">
<svg version="1.0" xmlns="http://www.w3.org/2000/svg"
 width="800.000000pt" height="600.000000pt" viewBox="0 0 800.000000 600.000000"
 preserveAspectRatio="xMidYMid meet">
<metadata>
Created by potrace 1.16, written by Peter Selinger 2001-2019
</metadata>
<g transform="translate(0.000000,600.000000) scale(0.100000,-0.100000)"
fill="#000000" stroke="none">
<path d="M3694 4310 c-245 -19 -511 -76 -733 -157 -107 -38 -221 -88 -156 -68
137 43 400 96 600 121 191 24 553 24 724 1 291 -41 514 -107 750 -223 l154
-76 -5 -149 -6 -149 28 -23 c15 -13 48 -47 73 -75 36 -40 47 -48 51 -34 21 73
41 540 24 557 -24 25 -287 123 -453 169 -318 88 -738 131 -1051 106z"/>
<path d="M3708 4140 c-148 -24 -274 -71 -390 -145 -42 -28 -161 -133 -294
-261 l-223 -215 -30 98 c-34 108 -61 229 -61 271 0 15 -5 34 -11 42 -7 11 -9
-42 -6 -180 4 -154 10 -224 31 -331 80 -421 253 -801 513 -1129 149 -188 385
-401 602 -545 l101 -66 100 63 c284 179 556 449 755 748 81 122 195 343 244
473 l29 77 -21 5 c-12 3 -51 9 -85 14 -59 7 -64 6 -72 -13 -109 -267 -178
-399 -290 -556 -127 -179 -311 -369 -344 -357 -21 8 -44 58 -67 143 -10 41
-29 109 -40 152 -30 108 -30 276 0 387 26 96 89 228 135 281 l34 39 157 4
c248 5 530 -23 758 -78 93 -22 93 -22 46 96 -84 213 -224 385 -413 508 -77 51
-232 124 -262 125 -6 0 -21 25 -33 56 -47 113 -177 218 -301 243 -25 5 -88 19
-140 30 -108 24 -332 35 -422 21z"/>
</g>
</svg>
